<svg width="800" height="800" viewBox="0 0 800 800" fill="none" xmlns="http://www.w3.org/2000/svg">
<path d="M730.04 433.333H561.686C546.243 509.407 478.986 566.667 398.353 566.667C317.722 566.667 250.463 509.407 235.021 433.333H66.6665C83.3905 601.777 225.509 733.333 398.353 733.333C571.2 733.333 713.316 601.777 730.04 433.333Z" fill="white"/>
<path d="M730.04 366.667C713.316 198.223 571.2 66.6667 398.353 66.6667C225.509 66.6667 83.3905 198.223 66.6665 366.667H235.021C250.464 290.592 317.722 233.333 398.353 233.333C478.986 233.333 546.243 290.592 561.686 366.667H730.04Z" fill="white"/>
<path fill-rule="evenodd" clip-rule="evenodd" d="M398.353 500C453.583 500 498.353 455.23 498.353 400C498.353 344.77 453.583 300 398.353 300C343.127 300 298.354 344.77 298.354 400C298.354 455.23 343.127 500 398.353 500Z" fill="white"/>
</svg>
